HIERARCHY
ROOT Hips
{
	OFFSET 2.066509 106.571495 -2.792651
	CHANNELS 6 Xposition Yposition Zposition Xrotation Yrotation Zrotation
	JOINT Chest
	{
		OFFSET 0.613052 13.609703 0.744526
		CHANNELS 3 Xrotation Yrotation Zrotation
		JOINT Chest2
		{
			OFFSET -0.344794 21.232697 2.849566
			CHANNELS 3 Xrotation Yrotation Zrotation
			JOINT Chest3
			{
				OFFSET -0.013287 14.892136 -1.021715
				CHANNELS 3 Xrotation Yrotation Zrotation
				JOINT Neck
				{
					OFFSET 0.637728 17.240662 0.984392
					CHANNELS 3 Xrotation Yrotation Zrotation
					JOINT Head
					{
						OFFSET 0.345502 10.209473 2.339883
						CHANNELS 3 Xrotation Yrotation Zrotation
						End Site
						{
							OFFSET 0.355002 10.225098 2.269118
						}
					}
				}
				JOINT LeftCollar
				{
					OFFSET 4.802065 12.913513 3.462059
					CHANNELS 3 Xrotation Yrotation Zrotation
					JOINT LeftUpArm
					{
						OFFSET 15.028656 6.748871 -6.090284
						CHANNELS 3 Xrotation Yrotation Zrotation
						JOINT LeftLowArm
						{
							OFFSET 12.883760 25.780457 17.581360
							CHANNELS 3 Xrotation Yrotation Zrotation
							JOINT LeftHand
							{
								OFFSET 2.804321 27.389404 11.954195
								CHANNELS 3 Xrotation Yrotation Zrotation
								End Site
								{
									OFFSET 0.612907 5.986115 2.612646
								}
							}
						}
					}
				}
				JOINT RightCollar
				{
					OFFSET -3.602611 13.205139 3.801842
					CHANNELS 3 Xrotation Yrotation Zrotation
					JOINT RightUpArm
					{
						OFFSET -15.003604 7.504944 -5.202301
						CHANNELS 3 Xrotation Yrotation Zrotation
						JOINT RightLowArm
						{
							OFFSET -9.605005 26.691864 18.303606
							CHANNELS 3 Xrotation Yrotation Zrotation
							JOINT RightHand
							{
								OFFSET 1.617306 25.818878 15.222502
								CHANNELS 3 Xrotation Yrotation Zrotation
								End Site
								{
									OFFSET 0.353487 5.642975 3.327040
								}
							}
						}
					}
				}
			}
		}
	}
	JOINT LeftUpLeg
	{
		OFFSET 10.005285 -0.467728 0.307630
		CHANNELS 3 Xrotation Yrotation Zrotation
		JOINT LeftLowLeg
		{
			OFFSET 23.587173 -40.337402 7.779976
			CHANNELS 3 Xrotation Yrotation Zrotation
			JOINT LeftFoot
			{
				OFFSET 12.738689 -41.277878 -11.594391
				CHANNELS 3 Xrotation Yrotation Zrotation
				JOINT LeftToe
				{
					OFFSET 10.611736 -17.107695 12.420835
					CHANNELS 3 Xrotation Yrotation Zrotation
					End Site
					{
						OFFSET 9.203865 -4.018371 21.417295
					}
				}
			}
		}
	}
	JOINT RightUpLeg
	{
		OFFSET -10.005297 0.467529 -0.307641
		CHANNELS 3 Xrotation Yrotation Zrotation
		JOINT RightLowLeg
		{
			OFFSET -23.301533 -40.622681 7.130729
			CHANNELS 3 Xrotation Yrotation Zrotation
			JOINT RightFoot
			{
				OFFSET -8.844896 -40.630760 -16.476889
				CHANNELS 3 Xrotation Yrotation Zrotation
				JOINT RightToe
				{
					OFFSET -8.946152 -18.734221 11.338068
					CHANNELS 3 Xrotation Yrotation Zrotation
					End Site
					{
						OFFSET -10.012627 -5.817798 20.626602
					}
				}
			}
		}
	}
}
MOTION
Frames: 7
Frame Time: 0.033333
-0.842779 83.390762 -3.910898 -4.073419 -2.105098 2.034597 4.425642 -0.307822 -0.362855 -0.498595 1.080316 -1.232628 -4.419603 1.110183 -0.120399 -11.067112 2.331588 1.967872 0.000000 0.000001 -0.000000 -0.161041 2.516427 -26.382463 -8.732504 20.624311 -17.748100 14.761169 -9.428228 18.450819 0.000001 -0.000000 -0.000004 1.104060 -2.468891 24.391270 -10.209102 -21.319725 18.977436 10.929179 9.347589 -18.707579 0.000006 0.000007 0.000003 -7.276937 -1.336936 31.027890 31.333377 -3.891953 -47.988486 -23.040033 7.184039 15.264122 -0.000001 0.000003 0.000002 -6.436803 2.053012 -31.910272 25.491250 2.648746 50.557644 -24.703725 -23.189370 -21.175844 -0.000001 0.000001 0.000000 
-0.856128 83.323761 -3.929177 -3.867748 -2.061795 2.007768 4.379126 -0.295600 -0.322473 -0.346045 1.032072 -1.168993 -4.568058 1.152733 -0.199347 -11.081200 2.255412 1.986280 0.000000 0.000000 -0.000000 -0.134385 2.230489 -26.408942 -8.927603 20.809573 -17.744574 15.062714 -9.645351 18.736192 0.000002 -0.000002 0.000000 0.795104 -3.019077 24.392699 -10.137579 -21.072103 18.989302 11.857773 9.433161 -18.771404 0.000003 0.000010 0.000003 -7.442399 -1.455986 31.059507 31.346313 -3.907384 -47.939660 -22.796265 7.310244 15.190537 -0.000001 0.000001 -0.000000 -6.627777 2.197739 -31.841324 25.236079 2.642582 50.705429 -24.931316 -23.550791 -21.522110 -0.000002 0.000001 -0.000000 
-0.865287 83.273514 -3.949805 -3.782187 -1.968211 2.042942 4.107102 -0.298013 -0.254349 -0.482498 1.039156 -1.193326 -4.347883 1.175591 -0.210451 -11.195398 2.253992 1.987941 -0.000001 0.000000 -0.000000 -0.114201 2.113641 -26.322907 -8.905745 20.782013 -17.937059 15.265500 -9.729464 18.756589 0.000001 -0.000002 -0.000000 0.768335 -2.972476 24.308848 -9.854716 -20.702735 19.213129 12.686090 9.497452 -18.920251 0.000001 0.000002 0.000003 -7.679428 -1.567630 30.840353 31.665624 -3.844992 -47.617381 -22.772269 7.156847 15.062145 -0.000001 -0.000003 0.000001 -6.507617 2.084438 -31.885164 25.134391 2.569366 50.656931 -24.718933 -23.201920 -21.185003 -0.000002 0.000001 0.000001 
-0.877781 83.248421 -3.974901 -3.878178 -1.671526 1.973586 4.022831 -0.304792 -0.111247 1.091068 0.883283 -1.096345 -5.824095 0.993818 -0.351058 -10.480436 2.291009 1.903818 -0.000000 -0.000001 -0.000000 -0.207785 2.260374 -26.381068 -8.897432 20.550584 -17.924291 15.103343 -9.782869 18.584062 0.000002 -0.000003 -0.000004 0.755917 -2.858682 24.442698 -10.113857 -20.702720 19.056902 12.416714 9.522492 -18.700124 0.000003 -0.000001 0.000001 -8.235821 -1.872794 30.490091 32.364373 -3.778896 -46.873508 -22.806843 6.777168 14.737398 -0.000000 0.000001 0.000001 -6.133806 1.810033 -31.742751 24.781134 2.507103 50.595757 -24.925317 -23.179357 -21.190288 -0.000001 0.000002 0.000001 
-0.888854 83.244186 -3.997178 -3.775756 -1.200300 1.953703 3.919979 -0.314427 0.050723 0.781314 0.847492 -1.037768 -5.574499 0.746256 -0.521540 -9.789778 2.196047 1.943613 0.000001 -0.000000 -0.000000 -0.184152 2.149203 -26.329870 -8.839833 20.342723 -18.113288 15.724101 -9.937934 18.595183 0.000002 -0.000003 0.000002 0.716838 -2.797822 24.341498 -10.415647 -21.089908 19.268633 13.828334 9.739781 -19.115010 0.000003 0.000007 0.000008 -8.681400 -2.106390 30.120656 32.580976 -3.760458 -46.258682 -22.555064 6.685486 14.485571 -0.000000 -0.000003 0.000002 -5.661205 1.475736 -31.713996 24.026416 2.446338 50.649971 -24.690166 -23.440919 -21.260337 -0.000002 0.000001 0.000000 
-0.906889 83.283676 -4.023914 -4.313017 -0.746417 1.934906 4.098719 -0.346461 0.157532 0.826525 0.780392 -0.934837 -5.453905 0.093665 -0.640955 -9.764134 2.389135 1.919340 -0.000001 -0.000000 -0.000000 -0.294456 2.810982 -26.244479 -8.209850 19.724721 -18.429795 16.156558 -9.918180 18.182937 0.000002 -0.000003 -0.000003 0.741581 -2.868675 24.377116 -10.363722 -21.154809 19.146868 13.074153 9.862197 -18.926471 0.000003 0.000000 0.000003 -8.622725 -2.074617 29.450608 32.738347 -3.679526 -45.149545 -22.435326 6.486921 14.244246 -0.000001 0.000003 0.000001 -5.170864 1.152509 -31.195888 23.880633 2.419279 49.886165 -24.380307 -24.025237 -21.520464 -0.000002 0.000002 0.000001 
-0.932541 83.395164 -4.051666 -4.325838 -0.397205 1.885925 4.431405 -0.399805 0.307262 0.678131 0.757251 -0.881768 -5.566126 -0.394697 -0.746813 -9.763482 2.401584 1.971819 -0.000001 0.000000 -0.000000 -0.361170 3.376065 -26.073364 -7.942450 19.681381 -18.695225 16.560180 -9.872559 17.943675 0.000002 -0.000004 -0.000001 0.859883 -2.746349 24.421809 -10.080313 -21.036117 19.165166 12.683882 9.809387 -18.578251 0.000002 0.000002 0.000005 -8.892402 -2.265657 28.316880 32.790208 -3.448967 -43.609808 -22.640798 6.538876 14.377690 -0.000001 0.000001 0.000002 -4.851343 1.018288 -30.302940 23.481808 2.277139 48.821567 -24.537229 -23.427426 -21.180903 -0.000001 0.000003 0.000000 
